<svg xmlns="http://www.w3.org/2000/svg" width="338.93" height="332.88" viewBox="0 0 338.93 332.88">
  <g id="Logo" transform="translate(-468.91 -337.18)">
    <g id="Group_2" data-name="Group 2">
      <g id="Group_1" data-name="Group 1">
        <path id="Path_1" data-name="Path 1" d="M480.88,612.8h9.28v12.67a26.484,26.484,0,0,1-4.17,1.04,29.382,29.382,0,0,1-4.82.35,13.207,13.207,0,0,1-6.7-1.58,10.144,10.144,0,0,1-4.14-4.54,16.374,16.374,0,0,1-1.42-7.1,14.763,14.763,0,0,1,1.56-6.96,10.99,10.99,0,0,1,4.55-4.61,14.8,14.8,0,0,1,7.21-1.63,19.728,19.728,0,0,1,4.05.4,17.441,17.441,0,0,1,3.58,1.13l-1.3,3.04a19.175,19.175,0,0,0-3.03-1.05,13.513,13.513,0,0,0-3.44-.43,9.823,9.823,0,0,0-5.07,1.25,8.206,8.206,0,0,0-3.25,3.52,11.99,11.99,0,0,0-1.13,5.38,13.72,13.72,0,0,0,.95,5.31,7.406,7.406,0,0,0,2.97,3.53,9.7,9.7,0,0,0,5.2,1.27,17.62,17.62,0,0,0,2.73-.18c.75-.12,1.45-.26,2.08-.42v-7.24h-5.71V612.8Z" fill="#036"/>
        <path id="Path_2" data-name="Path 2" d="M499.46,626.51h-3.55V599.16h3.55Z" fill="#036"/>
        <path id="Path_3" data-name="Path 3" d="M522.4,616.79a13.64,13.64,0,0,1-.62,4.26,8.533,8.533,0,0,1-1.81,3.16,7.757,7.757,0,0,1-2.86,1.97,10.026,10.026,0,0,1-3.78.68,9.4,9.4,0,0,1-3.61-.68,8.024,8.024,0,0,1-2.84-1.97,8.978,8.978,0,0,1-1.85-3.16,12.752,12.752,0,0,1-.65-4.26,12.239,12.239,0,0,1,1.09-5.42,7.775,7.775,0,0,1,3.12-3.41,9.532,9.532,0,0,1,4.84-1.17,9.078,9.078,0,0,1,4.69,1.18,8.076,8.076,0,0,1,3.15,3.41A11.915,11.915,0,0,1,522.4,616.79Zm-14.4,0a11.508,11.508,0,0,0,.57,3.84,5.022,5.022,0,0,0,1.76,2.47,5.856,5.856,0,0,0,6.11,0,4.961,4.961,0,0,0,1.76-2.47,13.309,13.309,0,0,0,0-7.64,4.877,4.877,0,0,0-1.75-2.43,5.146,5.146,0,0,0-3.08-.84,4.627,4.627,0,0,0-4.07,1.85A9.046,9.046,0,0,0,508,616.79Z" fill="#036"/>
        <path id="Path_4" data-name="Path 4" d="M530.81,599.16v6.71c0,.77-.02,1.53-.06,2.27s-.08,1.31-.11,1.71h.18a6.709,6.709,0,0,1,2.24-2.15,7.856,7.856,0,0,1,9.4,1.63q2.13,2.52,2.13,7.48a13.874,13.874,0,0,1-.98,5.52,7.371,7.371,0,0,1-2.74,3.39,7.5,7.5,0,0,1-4.16,1.14,7.174,7.174,0,0,1-3.67-.83,6.782,6.782,0,0,1-2.2-2h-.26l-.67,2.48h-2.62V599.16h3.52ZM536,609.7a5.381,5.381,0,0,0-3.05.76,4.19,4.19,0,0,0-1.63,2.29,12.957,12.957,0,0,0-.51,3.85v.26a10.117,10.117,0,0,0,1.13,5.27q1.125,1.83,4.08,1.83a4.157,4.157,0,0,0,3.68-1.86,9.479,9.479,0,0,0,1.26-5.33,9.22,9.22,0,0,0-1.25-5.29A4.251,4.251,0,0,0,536,609.7Z" fill="#036"/>
        <path id="Path_5" data-name="Path 5" d="M556.92,606.8a7.819,7.819,0,0,1,5.36,1.59c1.18,1.06,1.78,2.73,1.78,5.02v13.1h-2.53l-.69-2.81h-.14a10.177,10.177,0,0,1-1.69,1.76,5.938,5.938,0,0,1-2.03,1.05,9.851,9.851,0,0,1-2.8.35,7.446,7.446,0,0,1-3.13-.63,4.806,4.806,0,0,1-2.15-1.91,6.121,6.121,0,0,1-.78-3.24,5.064,5.064,0,0,1,2.27-4.48q2.265-1.53,6.87-1.67l3.34-.14V613.7a4.23,4.23,0,0,0-1.01-3.2,4,4,0,0,0-2.82-.93,9.456,9.456,0,0,0-2.87.43,20.945,20.945,0,0,0-2.64,1.03l-1.13-2.57a15.984,15.984,0,0,1,3.12-1.18A13.833,13.833,0,0,1,556.92,606.8Zm3.64,10.3-2.71.12c-2.24.08-3.81.45-4.72,1.12a3.23,3.23,0,0,0-1.36,2.77,2.7,2.7,0,0,0,.93,2.27,3.91,3.91,0,0,0,2.46.72,5.679,5.679,0,0,0,3.88-1.33,4.916,4.916,0,0,0,1.52-3.93V617.1Z" fill="#036"/>
        <path id="Path_6" data-name="Path 6" d="M573.49,626.51h-3.55V599.16h3.55Z" fill="#036"/>
        <path id="Path_7" data-name="Path 7" d="M589.3,600.81h7.45q4.905,0,7.38,1.44t2.48,4.94a6.3,6.3,0,0,1-.54,2.67,5,5,0,0,1-1.58,1.95,6,6,0,0,1-2.55,1.05v.18a8.708,8.708,0,0,1,2.81.95,4.958,4.958,0,0,1,1.94,1.94,6.547,6.547,0,0,1,.71,3.23,6.992,6.992,0,0,1-1.11,4,6.851,6.851,0,0,1-3.14,2.5,12.414,12.414,0,0,1-4.83.85h-9.04v-25.7Zm3.6,10.81h4.48c2.07,0,3.51-.34,4.31-1.02a3.681,3.681,0,0,0,1.2-2.97,3.157,3.157,0,0,0-1.42-2.91,8.849,8.849,0,0,0-4.52-.89h-4.04v7.79Zm0,2.97v8.88h4.9c2.12,0,3.62-.42,4.49-1.25a4.428,4.428,0,0,0,1.31-3.36,4.285,4.285,0,0,0-.59-2.29,3.747,3.747,0,0,0-1.91-1.47,10.074,10.074,0,0,0-3.55-.51H592.9Z" fill="#036"/>
        <path id="Path_8" data-name="Path 8" d="M628.8,607.14v19.37h-2.83l-.49-2.65h-.19a5.377,5.377,0,0,1-1.55,1.67,6.836,6.836,0,0,1-2.13,1,9.262,9.262,0,0,1-2.5.33,8.831,8.831,0,0,1-3.79-.74,5.037,5.037,0,0,1-2.36-2.29,8.687,8.687,0,0,1-.8-4.02V607.14h3.55v12.18a5.24,5.24,0,0,0,1.01,3.5,3.841,3.841,0,0,0,3.08,1.16,5.69,5.69,0,0,0,3.21-.8,4.422,4.422,0,0,0,1.71-2.34,11.788,11.788,0,0,0,.52-3.77v-9.93h3.56Z" fill="#036"/>
        <path id="Path_9" data-name="Path 9" d="M647.6,621.09a5.349,5.349,0,0,1-.92,3.17A5.508,5.508,0,0,1,644,626.2a12.273,12.273,0,0,1-4.22.65,17.173,17.173,0,0,1-3.52-.31,11.313,11.313,0,0,1-2.67-.89v-3.13a19.153,19.153,0,0,0,2.97,1.09,12.009,12.009,0,0,0,3.3.47,5.794,5.794,0,0,0,3.28-.72,2.257,2.257,0,0,0,1.01-1.95,2.067,2.067,0,0,0-.4-1.27,4.391,4.391,0,0,0-1.42-1.11,25.392,25.392,0,0,0-2.89-1.27,27.589,27.589,0,0,1-3.16-1.44,5.557,5.557,0,0,1-2-1.74,4.622,4.622,0,0,1-.69-2.64,4.31,4.31,0,0,1,2.01-3.84,9.547,9.547,0,0,1,5.32-1.33,15.206,15.206,0,0,1,3.31.35,16,16,0,0,1,2.98.98l-1.14,2.72a19.518,19.518,0,0,0-2.6-.91,10.42,10.42,0,0,0-2.72-.36,5.366,5.366,0,0,0-2.77.58,1.792,1.792,0,0,0-.96,1.6,1.957,1.957,0,0,0,.45,1.32,4.664,4.664,0,0,0,1.5,1.03c.7.34,1.65.73,2.85,1.19a23.7,23.7,0,0,1,3.07,1.39,5.765,5.765,0,0,1,2,1.76A4.672,4.672,0,0,1,647.6,621.09Z" fill="#036"/>
        <path id="Path_10" data-name="Path 10" d="M653.97,599.81a2.213,2.213,0,0,1,1.45.49,2.416,2.416,0,0,1,0,3.21,2.353,2.353,0,0,1-2.9,0,2.006,2.006,0,0,1-.59-1.61,1.983,1.983,0,0,1,.59-1.6A2.159,2.159,0,0,1,653.97,599.81Zm1.74,7.33v19.37h-3.53V607.14Z" fill="#036"/>
        <path id="Path_11" data-name="Path 11" d="M671.37,606.78a7.243,7.243,0,0,1,5.16,1.69q1.8,1.7,1.8,5.41V626.5h-3.5V614.35a5.175,5.175,0,0,0-1.02-3.49,3.93,3.93,0,0,0-3.13-1.17c-2,0-3.41.59-4.21,1.78a9.2,9.2,0,0,0-1.2,5.15v9.88h-3.53V607.13h2.79l.51,2.72h.19a5.8,5.8,0,0,1,1.56-1.71,6.848,6.848,0,0,1,2.12-1.03A8.649,8.649,0,0,1,671.37,606.78Z" fill="#036"/>
        <path id="Path_12" data-name="Path 12" d="M691.81,606.78a8.318,8.318,0,0,1,4.34,1.08,7.149,7.149,0,0,1,2.78,3.05,10.337,10.337,0,0,1,.97,4.64v2H686.75a6.949,6.949,0,0,0,1.6,4.77,5.665,5.665,0,0,0,4.34,1.66,14.189,14.189,0,0,0,3.29-.35,17.217,17.217,0,0,0,2.99-1.04v2.97a13.824,13.824,0,0,1-2.93.98,17.007,17.007,0,0,1-3.51.31,10.338,10.338,0,0,1-4.93-1.13,7.911,7.911,0,0,1-3.3-3.33,11.369,11.369,0,0,1-1.18-5.44,12.874,12.874,0,0,1,1.07-5.48,7.962,7.962,0,0,1,3.02-3.49A8.553,8.553,0,0,1,691.81,606.78Zm-.01,2.75a4.506,4.506,0,0,0-3.45,1.4,6.491,6.491,0,0,0-1.53,4h9.53a7.573,7.573,0,0,0-.51-2.81,4.109,4.109,0,0,0-1.49-1.9A4.385,4.385,0,0,0,691.8,609.53Z" fill="#036"/>
        <path id="Path_13" data-name="Path 13" d="M717.48,621.09a5.349,5.349,0,0,1-.92,3.17,5.508,5.508,0,0,1-2.68,1.94,12.273,12.273,0,0,1-4.22.65,17.173,17.173,0,0,1-3.52-.31,11.313,11.313,0,0,1-2.67-.89v-3.13a19.153,19.153,0,0,0,2.97,1.09,12.009,12.009,0,0,0,3.3.47,5.794,5.794,0,0,0,3.28-.72,2.257,2.257,0,0,0,1.01-1.95,2.067,2.067,0,0,0-.4-1.27,4.391,4.391,0,0,0-1.42-1.11,25.392,25.392,0,0,0-2.89-1.27,27.589,27.589,0,0,1-3.16-1.44,5.557,5.557,0,0,1-2-1.74,4.622,4.622,0,0,1-.69-2.64,4.31,4.31,0,0,1,2.01-3.84,9.547,9.547,0,0,1,5.32-1.33,15.206,15.206,0,0,1,3.31.35,16,16,0,0,1,2.98.98l-1.14,2.72a19.518,19.518,0,0,0-2.6-.91,10.42,10.42,0,0,0-2.72-.36,5.366,5.366,0,0,0-2.77.58,1.792,1.792,0,0,0-.96,1.6,1.957,1.957,0,0,0,.45,1.32,4.664,4.664,0,0,0,1.5,1.03c.7.34,1.65.73,2.85,1.19a23.7,23.7,0,0,1,3.07,1.39,5.765,5.765,0,0,1,2,1.76A4.672,4.672,0,0,1,717.48,621.09Z" fill="#036"/>
        <path id="Path_14" data-name="Path 14" d="M734.83,621.09a5.349,5.349,0,0,1-.92,3.17,5.508,5.508,0,0,1-2.68,1.94,12.273,12.273,0,0,1-4.22.65,17.173,17.173,0,0,1-3.52-.31,11.313,11.313,0,0,1-2.67-.89v-3.13a19.153,19.153,0,0,0,2.97,1.09,12.009,12.009,0,0,0,3.3.47,5.794,5.794,0,0,0,3.28-.72,2.257,2.257,0,0,0,1.01-1.95,2.067,2.067,0,0,0-.4-1.27,4.391,4.391,0,0,0-1.42-1.11,25.392,25.392,0,0,0-2.89-1.27,27.589,27.589,0,0,1-3.16-1.44,5.557,5.557,0,0,1-2-1.74,4.622,4.622,0,0,1-.69-2.64,4.31,4.31,0,0,1,2.01-3.84,9.547,9.547,0,0,1,5.32-1.33,15.206,15.206,0,0,1,3.31.35,16,16,0,0,1,2.98.98l-1.14,2.72a19.518,19.518,0,0,0-2.6-.91,10.42,10.42,0,0,0-2.72-.36,5.366,5.366,0,0,0-2.77.58,1.792,1.792,0,0,0-.96,1.6,1.957,1.957,0,0,0,.45,1.32,4.664,4.664,0,0,0,1.5,1.03c.7.34,1.65.73,2.85,1.19a23.7,23.7,0,0,1,3.07,1.39,5.765,5.765,0,0,1,2,1.76A4.672,4.672,0,0,1,734.83,621.09Z" fill="#036"/>
        <path id="Path_15" data-name="Path 15" d="M756.17,606.8a7.819,7.819,0,0,1,5.36,1.59c1.18,1.06,1.78,2.73,1.78,5.02v13.1h-2.53l-.69-2.81h-.14a10.177,10.177,0,0,1-1.69,1.76,5.938,5.938,0,0,1-2.03,1.05,9.851,9.851,0,0,1-2.8.35,7.446,7.446,0,0,1-3.13-.63,4.806,4.806,0,0,1-2.15-1.91,6.121,6.121,0,0,1-.78-3.24,5.064,5.064,0,0,1,2.27-4.48q2.265-1.53,6.87-1.67l3.34-.14V613.7a4.23,4.23,0,0,0-1.01-3.2,4,4,0,0,0-2.82-.93,9.456,9.456,0,0,0-2.87.43,20.945,20.945,0,0,0-2.64,1.03l-1.13-2.57a15.984,15.984,0,0,1,3.12-1.18A13.833,13.833,0,0,1,756.17,606.8Zm3.64,10.3-2.71.12c-2.24.08-3.81.45-4.72,1.12a3.23,3.23,0,0,0-1.36,2.77,2.7,2.7,0,0,0,.93,2.27,3.91,3.91,0,0,0,2.46.72,5.679,5.679,0,0,0,3.88-1.33,4.916,4.916,0,0,0,1.52-3.93V617.1Z" fill="#036"/>
        <path id="Path_16" data-name="Path 16" d="M778.82,606.78a7.243,7.243,0,0,1,5.16,1.69q1.8,1.7,1.8,5.41V626.5h-3.5V614.35a5.175,5.175,0,0,0-1.02-3.49,3.93,3.93,0,0,0-3.13-1.17c-2,0-3.41.59-4.21,1.78a9.2,9.2,0,0,0-1.2,5.15v9.88h-3.53V607.13h2.79l.51,2.72h.19a5.8,5.8,0,0,1,1.56-1.71,6.848,6.848,0,0,1,2.12-1.03A8.7,8.7,0,0,1,778.82,606.78Z" fill="#036"/>
        <path id="Path_17" data-name="Path 17" d="M798.37,626.86a7.046,7.046,0,0,1-5.67-2.51c-1.41-1.67-2.12-4.16-2.12-7.45,0-3.33.72-5.84,2.15-7.55a7.08,7.08,0,0,1,5.72-2.56,7.717,7.717,0,0,1,2.62.4,6.577,6.577,0,0,1,1.94,1.07,6.47,6.47,0,0,1,1.36,1.51h.21q-.09-.54-.18-1.53c-.06-.66-.09-1.23-.09-1.72v-7.37h3.53V626.5h-2.79l-.58-2.69h-.16a6.682,6.682,0,0,1-1.34,1.54,6.264,6.264,0,0,1-1.95,1.1A7.808,7.808,0,0,1,798.37,626.86Zm.83-2.88q2.865,0,4.05-1.65a8.465,8.465,0,0,0,1.2-4.9v-.54a10.343,10.343,0,0,0-1.13-5.32c-.75-1.24-2.14-1.85-4.16-1.85a4.136,4.136,0,0,0-3.71,1.92,9.75,9.75,0,0,0-1.25,5.33,9.126,9.126,0,0,0,1.25,5.19A4.247,4.247,0,0,0,799.2,623.98Z" fill="#036"/>
        <path id="Path_18" data-name="Path 18" d="M514.5,669.71l-2.85-7.65H501.58l-2.81,7.65h-3.74l9.81-25.8h3.69l9.76,25.8Zm-3.85-10.78-2.71-7.58c-.08-.26-.21-.64-.38-1.16s-.34-1.05-.51-1.6-.31-1.01-.41-1.37c-.12.48-.25.99-.4,1.52s-.3,1.03-.45,1.49-.27.83-.36,1.12l-2.74,7.58h7.96Z" fill="#036"/>
        <path id="Path_19" data-name="Path 19" d="M525.68,669.71l-7.37-19.37h3.74l4.13,11.55c.27.76.54,1.59.8,2.5a22.24,22.24,0,0,1,.54,2.23h.12a23.143,23.143,0,0,1,.6-2.25c.28-.9.55-1.73.81-2.48l4.11-11.55h3.76l-7.38,19.37Z" fill="#036"/>
        <path id="Path_20" data-name="Path 20" d="M541.73,643.01a2.213,2.213,0,0,1,1.45.49,2.416,2.416,0,0,1,0,3.21,2.353,2.353,0,0,1-2.9,0,2.006,2.006,0,0,1-.59-1.61,1.983,1.983,0,0,1,.59-1.6A2.177,2.177,0,0,1,541.73,643.01Zm1.74,7.33v19.37h-3.53V650.34Z" fill="#036"/>
        <path id="Path_21" data-name="Path 21" d="M556.92,650a7.819,7.819,0,0,1,5.36,1.59c1.18,1.06,1.78,2.73,1.78,5.02v13.1h-2.53l-.69-2.81h-.14a10.177,10.177,0,0,1-1.69,1.76,5.938,5.938,0,0,1-2.03,1.05,9.851,9.851,0,0,1-2.8.35,7.446,7.446,0,0,1-3.13-.63,4.806,4.806,0,0,1-2.15-1.91,6.121,6.121,0,0,1-.78-3.24,5.064,5.064,0,0,1,2.27-4.48q2.265-1.53,6.87-1.67l3.34-.14V656.9a4.23,4.23,0,0,0-1.01-3.2,4,4,0,0,0-2.82-.93,9.456,9.456,0,0,0-2.87.43,20.945,20.945,0,0,0-2.64,1.03l-1.13-2.57a15.984,15.984,0,0,1,3.12-1.18A13.833,13.833,0,0,1,556.92,650Zm3.64,10.3-2.71.12c-2.24.08-3.81.45-4.72,1.12a3.23,3.23,0,0,0-1.36,2.77,2.7,2.7,0,0,0,.93,2.27,3.91,3.91,0,0,0,2.46.72,5.679,5.679,0,0,0,3.88-1.33,4.916,4.916,0,0,0,1.52-3.93V660.3Z" fill="#036"/>
        <path id="Path_22" data-name="Path 22" d="M576.69,667.19a8.945,8.945,0,0,0,1.53-.13,7.667,7.667,0,0,0,1.34-.34v2.71a7.026,7.026,0,0,1-1.59.45,11.354,11.354,0,0,1-2.03.18,7.376,7.376,0,0,1-2.87-.54,4.231,4.231,0,0,1-2.05-1.86,7.335,7.335,0,0,1-.76-3.66V653.07h-2.69v-1.63l2.81-1.3,1.25-4.18h2.18v4.39h5.61v2.72h-5.61v10.88a3.389,3.389,0,0,0,.78,2.44A2.773,2.773,0,0,0,576.69,667.19Z" fill="#036"/>
        <path id="Path_23" data-name="Path 23" d="M585.27,643.01a2.213,2.213,0,0,1,1.45.49,2.416,2.416,0,0,1,0,3.21,2.353,2.353,0,0,1-2.9,0,2.006,2.006,0,0,1-.59-1.61,1.983,1.983,0,0,1,.59-1.6A2.177,2.177,0,0,1,585.27,643.01Zm1.74,7.33v19.37h-3.53V650.34Z" fill="#036"/>
        <path id="Path_24" data-name="Path 24" d="M609.97,659.99a13.64,13.64,0,0,1-.62,4.26,8.533,8.533,0,0,1-1.81,3.16,7.757,7.757,0,0,1-2.86,1.97,10.026,10.026,0,0,1-3.78.68,9.4,9.4,0,0,1-3.61-.68,8.025,8.025,0,0,1-2.84-1.97,8.977,8.977,0,0,1-1.85-3.16,12.752,12.752,0,0,1-.65-4.26,12.238,12.238,0,0,1,1.09-5.42,7.776,7.776,0,0,1,3.12-3.41,9.532,9.532,0,0,1,4.84-1.17,9.078,9.078,0,0,1,4.69,1.18,8.076,8.076,0,0,1,3.15,3.41A11.885,11.885,0,0,1,609.97,659.99Zm-14.4,0a11.508,11.508,0,0,0,.57,3.84,5.022,5.022,0,0,0,1.76,2.47,5.856,5.856,0,0,0,6.11,0,4.961,4.961,0,0,0,1.76-2.47,13.309,13.309,0,0,0,0-7.64,4.877,4.877,0,0,0-1.75-2.43,5.146,5.146,0,0,0-3.08-.84,4.627,4.627,0,0,0-4.07,1.85A9.047,9.047,0,0,0,595.57,659.99Z" fill="#036"/>
        <path id="Path_25" data-name="Path 25" d="M624.49,649.98a7.243,7.243,0,0,1,5.16,1.69q1.8,1.7,1.8,5.41V669.7h-3.5V657.55a5.175,5.175,0,0,0-1.02-3.49,3.93,3.93,0,0,0-3.13-1.17c-2,0-3.41.59-4.21,1.78a9.2,9.2,0,0,0-1.2,5.15v9.88h-3.53V650.33h2.79l.51,2.72h.19a5.8,5.8,0,0,1,1.56-1.71,6.848,6.848,0,0,1,2.12-1.03A8.649,8.649,0,0,1,624.49,649.98Z" fill="#036"/>
        <path id="Path_26" data-name="Path 26" d="M661.81,662.8a6.7,6.7,0,0,1-1.13,3.91,7.176,7.176,0,0,1-3.19,2.49,12.5,12.5,0,0,1-4.89.86,23.728,23.728,0,0,1-2.72-.15,17.777,17.777,0,0,1-2.4-.43,11.133,11.133,0,0,1-2-.7v-3.41a29.067,29.067,0,0,0,3.38,1.12,14.944,14.944,0,0,0,3.96.52,8.088,8.088,0,0,0,2.98-.48,3.969,3.969,0,0,0,1.82-1.36,3.578,3.578,0,0,0,.62-2.11,3.47,3.47,0,0,0-.6-2.07,5.52,5.52,0,0,0-1.89-1.54,26.819,26.819,0,0,0-3.38-1.49,17.074,17.074,0,0,1-2.65-1.2,9.44,9.44,0,0,1-2.07-1.56,6.011,6.011,0,0,1-1.34-2.07,7.473,7.473,0,0,1-.47-2.73,6.223,6.223,0,0,1,1.05-3.64,6.543,6.543,0,0,1,2.93-2.31,11.156,11.156,0,0,1,4.36-.8,17.064,17.064,0,0,1,3.81.4,18.747,18.747,0,0,1,3.37,1.11l-1.14,2.99a23.077,23.077,0,0,0-3.01-1,12.485,12.485,0,0,0-3.13-.39,6.429,6.429,0,0,0-2.52.44,3.389,3.389,0,0,0-1.56,1.25,3.46,3.46,0,0,0-.54,1.92,3.631,3.631,0,0,0,.56,2.07,4.93,4.93,0,0,0,1.78,1.49,27.128,27.128,0,0,0,3.16,1.42,22.983,22.983,0,0,1,3.74,1.79,6.8,6.8,0,0,1,2.35,2.29A6.422,6.422,0,0,1,661.81,662.8Z" fill="#036"/>
        <path id="Path_27" data-name="Path 27" d="M674.04,649.98a8.318,8.318,0,0,1,4.34,1.08,7.149,7.149,0,0,1,2.78,3.05,10.337,10.337,0,0,1,.97,4.64v2H668.98a6.949,6.949,0,0,0,1.6,4.77,5.665,5.665,0,0,0,4.34,1.66,14.189,14.189,0,0,0,3.29-.35,17.217,17.217,0,0,0,2.99-1.04v2.97a13.824,13.824,0,0,1-2.93.98,17.007,17.007,0,0,1-3.51.31,10.338,10.338,0,0,1-4.93-1.13,7.911,7.911,0,0,1-3.3-3.33,11.369,11.369,0,0,1-1.18-5.44,12.874,12.874,0,0,1,1.07-5.48,7.962,7.962,0,0,1,3.02-3.49A8.529,8.529,0,0,1,674.04,649.98Zm-.02,2.75a4.506,4.506,0,0,0-3.45,1.4,6.491,6.491,0,0,0-1.53,4h9.53a7.573,7.573,0,0,0-.51-2.81,4.109,4.109,0,0,0-1.49-1.9A4.363,4.363,0,0,0,674.02,652.73Z" fill="#036"/>
        <path id="Path_28" data-name="Path 28" d="M696.24,649.98q.525,0,1.14.06a10.129,10.129,0,0,1,1.05.15l-.37,3.29a9.176,9.176,0,0,0-.98-.18,7.641,7.641,0,0,0-1.03-.07,5.555,5.555,0,0,0-2.14.42,5.23,5.23,0,0,0-1.79,1.22,5.655,5.655,0,0,0-1.21,1.95,7.4,7.4,0,0,0-.44,2.63V669.7h-3.55V650.33h2.85l.42,3.5h.16a9.379,9.379,0,0,1,1.45-1.93,6.728,6.728,0,0,1,1.97-1.4A5.755,5.755,0,0,1,696.24,649.98Z" fill="#036"/>
        <path id="Path_29" data-name="Path 29" d="M706.4,669.71l-7.37-19.37h3.74l4.13,11.55c.27.76.54,1.59.8,2.5a22.24,22.24,0,0,1,.54,2.23h.12a23.143,23.143,0,0,1,.6-2.25c.28-.9.55-1.73.81-2.48l4.11-11.55h3.76l-7.38,19.37Z" fill="#036"/>
        <path id="Path_30" data-name="Path 30" d="M722.45,643.01a2.213,2.213,0,0,1,1.45.49,2.416,2.416,0,0,1,0,3.21,2.353,2.353,0,0,1-2.9,0,2.006,2.006,0,0,1-.59-1.61,1.983,1.983,0,0,1,.59-1.6A2.177,2.177,0,0,1,722.45,643.01Zm1.74,7.33v19.37h-3.53V650.34Z" fill="#036"/>
        <path id="Path_31" data-name="Path 31" d="M738.01,670.06a9.853,9.853,0,0,1-4.68-1.07,7.211,7.211,0,0,1-3.1-3.28,12.516,12.516,0,0,1-1.1-5.58,12.318,12.318,0,0,1,1.18-5.76,7.508,7.508,0,0,1,3.26-3.31,10.342,10.342,0,0,1,4.77-1.07,13.3,13.3,0,0,1,2.96.32,9.857,9.857,0,0,1,2.31.79l-1.05,2.87a18.829,18.829,0,0,0-2.12-.69,8.422,8.422,0,0,0-2.15-.3,5.373,5.373,0,0,0-3.08.82,4.967,4.967,0,0,0-1.84,2.4,10.848,10.848,0,0,0-.62,3.9,10.423,10.423,0,0,0,.61,3.81,4.892,4.892,0,0,0,1.79,2.36,5.211,5.211,0,0,0,2.96.81,10.54,10.54,0,0,0,2.81-.35,11.467,11.467,0,0,0,2.3-.9v3.11a8.178,8.178,0,0,1-2.25.84A13.9,13.9,0,0,1,738.01,670.06Z" fill="#036"/>
        <path id="Path_32" data-name="Path 32" d="M755.38,649.98a8.318,8.318,0,0,1,4.34,1.08,7.149,7.149,0,0,1,2.78,3.05,10.337,10.337,0,0,1,.97,4.64v2H750.32a6.949,6.949,0,0,0,1.6,4.77,5.665,5.665,0,0,0,4.34,1.66,14.189,14.189,0,0,0,3.29-.35,17.217,17.217,0,0,0,2.99-1.04v2.97a13.824,13.824,0,0,1-2.93.98,17.007,17.007,0,0,1-3.51.31,10.338,10.338,0,0,1-4.93-1.13,7.911,7.911,0,0,1-3.3-3.33,11.369,11.369,0,0,1-1.18-5.44,12.874,12.874,0,0,1,1.07-5.48,7.962,7.962,0,0,1,3.02-3.49A8.529,8.529,0,0,1,755.38,649.98Zm-.02,2.75a4.506,4.506,0,0,0-3.45,1.4,6.491,6.491,0,0,0-1.53,4h9.53a7.573,7.573,0,0,0-.51-2.81,4.109,4.109,0,0,0-1.49-1.9A4.385,4.385,0,0,0,755.36,652.73Z" fill="#036"/>
        <path id="Path_33" data-name="Path 33" d="M781.04,664.29a5.349,5.349,0,0,1-.92,3.17,5.508,5.508,0,0,1-2.68,1.94,12.273,12.273,0,0,1-4.22.65,17.173,17.173,0,0,1-3.52-.31,11.313,11.313,0,0,1-2.67-.89v-3.13a19.153,19.153,0,0,0,2.97,1.09,12.009,12.009,0,0,0,3.3.47,5.794,5.794,0,0,0,3.28-.72,2.257,2.257,0,0,0,1.01-1.95,2.067,2.067,0,0,0-.4-1.27,4.391,4.391,0,0,0-1.42-1.11,25.392,25.392,0,0,0-2.89-1.27,27.589,27.589,0,0,1-3.16-1.44,5.557,5.557,0,0,1-2-1.74,4.622,4.622,0,0,1-.69-2.64,4.31,4.31,0,0,1,2.01-3.84,9.547,9.547,0,0,1,5.32-1.33,15.206,15.206,0,0,1,3.31.35,16,16,0,0,1,2.98.98l-1.14,2.72a19.518,19.518,0,0,0-2.6-.91,10.42,10.42,0,0,0-2.72-.36,5.366,5.366,0,0,0-2.77.58,1.792,1.792,0,0,0-.96,1.6,1.957,1.957,0,0,0,.45,1.32,4.664,4.664,0,0,0,1.5,1.03c.7.34,1.65.73,2.85,1.19a23.7,23.7,0,0,1,3.07,1.39,5.765,5.765,0,0,1,2,1.76A4.672,4.672,0,0,1,781.04,664.29Z" fill="#036"/>
      </g>
    </g>
    <g id="Group_7" data-name="Group 7">
      <g id="Group_3" data-name="Group 3">
        <path id="Path_34" data-name="Path 34" d="M667.34,373.72a211.583,211.583,0,0,0-25.24,7.46c-14.33-11.73-29.33-18.08-42.66-17.37C622.13,359.3,647.59,363.19,667.34,373.72Z" fill="#e85900"/>
        <path id="Path_35" data-name="Path 35" d="M642.04,381.52c-14.44-11.87-29.65-18.12-42.58-17.41l-.07-.6a105.444,105.444,0,0,1,68.83,10.33A212.335,212.335,0,0,0,642.04,381.52Zm-38.96-18.03c12.15.51,25.87,6.57,39.08,17.35a212.8,212.8,0,0,1,24.31-7.22A104.815,104.815,0,0,0,603.08,363.49Z" fill="#e85900"/>
      </g>
      <g id="Group_5" data-name="Group 5">
        <g id="Group_4" data-name="Group 4">
          <path id="Path_36" data-name="Path 36" d="M723.7,466.55c-.39,101.16-129.64,142.18-188.69,62.2-42.61-55.16-14.99-140.95,50.96-161.43-43.9,27.28-18.07,107.05,7.32,142.74,36.22,57.03,110.77,72.48,105.67-17.7-7.47,6.24-15.65,12.46-24.42,18.51a153.179,153.179,0,0,0-8.91-44.8c17.33-13.5,35.63-31.01,46.41-47.55A104.131,104.131,0,0,1,723.7,466.55Z" fill="#036"/>
        </g>
      </g>
      <g id="Group_6" data-name="Group 6">
        <path id="Path_37" data-name="Path 37" d="M654.08,402.18l8.35,6.36-.07.04,4.89,3.71c2.94,7.84,7.38,19.38,10.27,27.29,2.59-1.44,3.24-3.42,3.21-6.61-.02-5.74.04-17.3.11-23.02,8.59-5.27,21.67-13.25,30.31-18.61l15.88,42.23,4.32-3.31c3.47-5.29,1.35-47.62,2.01-54.32,8.32-7.39,35.99-21.6,28.31-35.71-11.35-11.26-32.42,11.85-41.6,17.78-6.8-1.29-45.94-14.91-52.14-13.14l-4.32,3.31,35.62,27.14c-7.48,7.02-18.52,17.36-26.06,24.36-5.42-1.56-16.38-4.7-21.82-6.25-3.06-.99-5.06-.79-7.12,1.27Z" fill="#e85900"/>
      </g>
    </g>
  </g>
</svg>

